<svg width="168" height="168" viewBox="0 0 168 168" fill="none" xmlns="http://www.w3.org/2000/svg">
<circle cx="87" cy="91.5" r="72" fill="#EA4335"/>
<path d="M147.168 58.0944C147.168 58.0776 147.168 58.044 147.151 58.0272C147.13 58.0081 147.113 57.9853 147.101 57.96C144.66 53.4388 141.718 49.2066 138.331 45.3432L142.666 41.0088C143.976 41.6304 145.454 42 147 42C152.561 42 157.08 37.4808 157.08 31.92C157.08 26.3592 152.561 21.84 147 21.84C141.439 21.84 136.92 26.3592 136.92 31.92C136.92 33.4656 137.29 34.944 137.911 36.2544L133.644 40.5216C129.898 37.0104 125.832 33.9696 121.531 31.416C121.481 31.3824 121.447 31.3488 121.397 31.332C121.363 31.2984 121.313 31.2984 121.279 31.2648C111.726 25.6501 100.949 22.4443 89.88 21.924V15.12H99.96C101.808 15.12 103.32 13.608 103.32 11.76C103.32 9.91199 101.808 8.39999 99.96 8.39999H73.08C71.232 8.39999 69.72 9.91199 69.72 11.76C69.72 13.608 71.232 15.12 73.08 15.12H83.16V21.9408C79.5816 22.1256 75.9696 22.5456 72.3912 23.3016C71.5202 23.4823 70.7566 24.0014 70.2683 24.7449C69.78 25.4884 69.607 26.3953 69.7872 27.2664C69.9709 28.1391 70.4933 28.9034 71.2397 29.3915C71.9861 29.8797 72.8956 30.0519 73.7688 29.8704C76.8936 29.2152 80.0352 28.8456 83.16 28.6776V35.28C83.16 37.128 84.672 38.64 86.52 38.64C88.368 38.64 89.88 37.128 89.88 35.28V28.6608C98.6832 29.1144 107.268 31.4496 115.063 35.4816L111.703 41.2104C111.403 41.721 111.244 42.3015 111.24 42.8936C111.236 43.4856 111.388 44.0682 111.681 44.5827C111.974 45.0971 112.398 45.5253 112.909 45.8239C113.42 46.1226 114.001 46.2813 114.593 46.284C115.752 46.284 116.878 45.6792 117.499 44.6208L120.842 38.9088C124.307 41.2002 127.532 43.8343 130.469 46.7712C134.03 50.316 137.038 54.1968 139.558 58.3128L133.728 61.4544C132.098 62.328 131.477 64.3776 132.367 66.0072C132.576 66.3961 132.86 66.74 133.202 67.019C133.544 67.2981 133.938 67.5068 134.361 67.6332C134.784 67.7596 135.228 67.8013 135.667 67.7558C136.106 67.7103 136.532 67.5785 136.92 67.368L142.75 64.2264C146.194 71.5512 148.126 79.4304 148.546 87.36H141.96C140.112 87.36 138.6 88.872 138.6 90.72C138.6 92.568 140.112 94.08 141.96 94.08H148.546C148.126 102.01 146.194 109.889 142.75 117.214L136.92 114.072C135.274 113.198 133.241 113.803 132.367 115.433C131.477 117.062 132.082 119.112 133.728 119.986L139.558 123.127C137.038 127.243 134.03 131.124 130.469 134.669C127.532 137.606 124.307 140.24 120.842 142.531L117.499 136.819C117.029 136.088 116.294 135.566 115.448 135.365C114.602 135.163 113.711 135.297 112.962 135.738C112.212 136.179 111.662 136.893 111.428 137.73C111.193 138.568 111.292 139.463 111.703 140.23L115.063 145.958C107.268 149.99 98.6832 152.326 89.88 152.796V146.16C89.88 144.312 88.368 142.8 86.52 142.8C84.672 142.8 83.16 144.312 83.16 146.16V152.762C80.0352 152.594 76.8936 152.225 73.7688 151.57C71.9544 151.2 70.1736 152.359 69.7872 154.174C69.4176 155.988 70.5768 157.769 72.3912 158.138C77.112 159.13 81.8664 159.617 86.5872 159.617C104.664 159.617 122.153 152.51 135.223 139.423C140.062 134.585 144.026 129.192 147.118 123.463C147.118 123.446 147.134 123.43 147.151 123.413C147.168 123.396 147.168 123.362 147.168 123.346C152.489 113.441 155.304 102.384 155.366 91.14C155.383 91.0056 155.4 90.8544 155.4 90.72C155.4 90.5856 155.383 90.4344 155.366 90.3C155.299 79.1952 152.561 68.124 147.168 58.0944ZM147 28.56C148.848 28.56 150.36 30.072 150.36 31.92C150.36 33.768 148.848 35.28 147 35.28C145.152 35.28 143.64 33.768 143.64 31.92C143.64 30.072 145.152 28.56 147 28.56ZM85.6632 100.867C86.352 101.002 87.0408 101.069 87.7296 101.069C91.7784 101.069 95.6592 98.8344 97.8432 95.1048L113.383 68.4432C114.156 67.1328 113.938 65.4528 112.862 64.3776C111.787 63.3024 110.107 63.084 108.797 63.8568L82.1352 79.3968C77.7672 81.9504 75.4488 86.8392 76.3728 91.5768C76.8096 93.8784 77.9352 95.9784 79.5984 97.6416C81.2616 99.3048 83.3616 100.43 85.6632 100.867ZM85.5288 85.2096L101.153 76.0872L92.0304 91.7112C90.9384 93.5928 88.8384 94.6512 86.94 94.2816C85.9579 94.0851 85.0569 93.5996 84.3528 92.8872C83.6404 92.1831 83.1549 91.2821 82.9584 90.3C82.5888 88.3848 83.6472 86.3016 85.5288 85.2096ZM64.68 48.72C64.68 50.568 63.168 52.08 61.32 52.08H54.6C52.752 52.08 51.24 50.568 51.24 48.72C51.24 46.872 52.752 45.36 54.6 45.36H61.32C63.168 45.36 64.68 46.872 64.68 48.72ZM64.68 65.52C64.68 67.368 63.168 68.88 61.32 68.88H41.16C39.312 68.88 37.8 67.368 37.8 65.52C37.8 63.672 39.312 62.16 41.16 62.16H61.32C63.168 62.16 64.68 63.672 64.68 65.52ZM64.68 82.32C64.68 84.168 63.168 85.68 61.32 85.68H27.72C25.872 85.68 24.36 84.168 24.36 82.32C24.36 80.472 25.872 78.96 27.72 78.96H61.32C63.168 78.96 64.68 80.472 64.68 82.32ZM64.68 99.12C64.68 100.968 63.168 102.48 61.32 102.48H14.28C12.432 102.48 10.92 100.968 10.92 99.12C10.92 97.272 12.432 95.76 14.28 95.76H61.32C63.168 95.76 64.68 97.272 64.68 99.12ZM64.68 115.92C64.68 117.768 63.168 119.28 61.32 119.28H27.72C25.872 119.28 24.36 117.768 24.36 115.92C24.36 114.072 25.872 112.56 27.72 112.56H61.32C63.168 112.56 64.68 114.072 64.68 115.92ZM64.68 132.72C64.68 134.568 63.168 136.08 61.32 136.08H41.16C39.312 136.08 37.8 134.568 37.8 132.72C37.8 130.872 39.312 129.36 41.16 129.36H61.32C63.168 129.36 64.68 130.872 64.68 132.72Z" fill="white"/>
</svg>
